<svg width="64" height="64" viewBox="0 0 64 64" fill="none" xmlns="http://www.w3.org/2000/svg">
<path d="M17.2799 40.4624L7.12489 31.9999L17.2799 23.5374C17.4875 23.3712 17.6599 23.1653 17.7869 22.9317C17.914 22.6981 17.9932 22.4414 18.0199 22.1768C18.0466 21.9122 18.0202 21.645 17.9424 21.3907C17.8646 21.1364 17.7368 20.9002 17.5665 20.6958C17.3963 20.4915 17.187 20.3232 16.951 20.2008C16.7149 20.0783 16.4568 20.0041 16.1917 19.9826C15.9266 19.9611 15.6599 19.9927 15.4072 20.0755C15.1545 20.1583 14.9208 20.2907 14.7199 20.4649L2.71989 30.4649C2.49472 30.6526 2.31356 30.8875 2.18925 31.153C2.06493 31.4185 2.00049 31.708 2.00049 32.0012C2.00049 32.2943 2.06493 32.5839 2.18925 32.8494C2.31356 33.1148 2.49472 33.3497 2.71989 33.5374L14.7199 43.5374C15.1277 43.8769 15.6536 44.0405 16.182 43.9922C16.7104 43.9439 17.1979 43.6877 17.5374 43.2799C17.8769 42.8722 18.0405 42.3462 17.9922 41.8179C17.9439 41.2895 17.6877 40.8019 17.2799 40.4624ZM61.2799 33.5374L49.2799 43.5374C49.078 43.7055 48.8449 43.8322 48.5941 43.9102C48.3432 43.9883 48.0794 44.0161 47.8178 43.9922C47.5562 43.9683 47.3018 43.8931 47.0693 43.7709C46.8367 43.6487 46.6305 43.4818 46.4624 43.2799C46.1229 42.8722 45.9593 42.3462 46.0076 41.8179C46.0559 41.2895 46.3121 40.8019 46.7199 40.4624L56.8749 31.9999L46.7199 23.5374C46.5123 23.3712 46.3399 23.1653 46.2128 22.9317C46.0858 22.6981 46.0066 22.4414 45.9799 22.1768C45.9532 21.9122 45.9795 21.645 46.0574 21.3907C46.1352 21.1364 46.263 20.9002 46.4332 20.6958C46.6035 20.4915 46.8127 20.3232 47.0488 20.2008C47.2849 20.0783 47.543 20.0041 47.8081 19.9826C48.0731 19.9611 48.3398 19.9927 48.5926 20.0755C48.8453 20.1583 49.0789 20.2907 49.2799 20.4649L61.2799 30.4649C61.5051 30.6526 61.6862 30.8875 61.8105 31.153C61.9348 31.4185 61.9993 31.708 61.9993 32.0012C61.9993 32.2943 61.9348 32.5839 61.8105 32.8494C61.6862 33.1148 61.5051 33.3497 61.2799 33.5374ZM40.6824 55.8799C40.4355 55.9696 40.1734 56.0097 39.911 55.998C39.6486 55.9864 39.3911 55.9231 39.1531 55.8119C38.9152 55.7007 38.7014 55.5437 38.5242 55.3499C38.3469 55.1561 38.2095 54.9293 38.1199 54.6824L22.1199 10.6824C22.0299 10.4354 21.9894 10.173 22.0009 9.91037C22.0124 9.6477 22.0756 9.38987 22.1868 9.15163C22.298 8.91339 22.4551 8.69942 22.6491 8.52196C22.8431 8.3445 23.0702 8.20704 23.3174 8.11743C23.5365 8.03956 23.7673 7.99981 23.9999 7.99993C24.4106 7.99992 24.8114 8.12636 25.1477 8.36208C25.4841 8.5978 25.7397 8.93136 25.8799 9.31743L41.8799 53.3174C41.9695 53.5643 42.0096 53.8264 41.998 54.0888C41.9863 54.3512 41.9231 54.6088 41.8119 54.8467C41.7007 55.0847 41.5437 55.2984 41.3499 55.4757C41.1561 55.6529 40.9293 55.7903 40.6824 55.8799Z" fill="#131315"/>
</svg>
