<svg width="64" height="64" viewBox="0 0 64 64" fill="none" xmlns="http://www.w3.org/2000/svg">
<path d="M53.3332 45.3333V18.6667C53.3332 12.8853 43.5652 8 31.9998 8C20.4345 8 10.6665 12.8853 10.6665 18.6667V45.3333C10.6665 51.1147 20.4345 56 31.9998 56C43.5652 56 53.3332 51.1147 53.3332 45.3333ZM31.9998 13.3333C41.8425 13.3333 47.8158 17.352 47.9998 18.6507C47.8158 19.9813 41.8425 24 31.9998 24C22.1572 24 16.1838 19.9813 15.9998 18.6827C16.1838 17.352 22.1572 13.3333 31.9998 13.3333ZM15.9998 25.6187C19.9438 27.8773 25.6985 29.3333 31.9998 29.3333C38.3012 29.3333 44.0558 27.8773 47.9998 25.6187V31.984C47.8158 33.3147 41.8425 37.3333 31.9998 37.3333C22.1572 37.3333 16.1838 33.3147 15.9998 32V25.6187ZM15.9998 45.3333V38.952C19.9438 41.2107 25.6985 42.6667 31.9998 42.6667C38.3012 42.6667 44.0558 41.2107 47.9998 38.952V45.3173C47.8158 46.648 41.8425 50.6667 31.9998 50.6667C22.1572 50.6667 16.1838 46.648 15.9998 45.3333Z" fill="#131315"/>
</svg>
