<svg width="64" height="64" viewBox="0 0 64 64" fill="none" xmlns="http://www.w3.org/2000/svg">
<path d="M56 12H8C7.46957 12 6.96086 12.2107 6.58579 12.5858C6.21071 12.9609 6 13.4696 6 14V48C6 49.0609 6.42143 50.0783 7.17157 50.8284C7.92172 51.5786 8.93913 52 10 52H54C55.0609 52 56.0783 51.5786 56.8284 50.8284C57.5786 50.0783 58 49.0609 58 48V14C58 13.4696 57.7893 12.9609 57.4142 12.5858C57.0391 12.2107 56.5304 12 56 12ZM32 33.2875L13.1425 16H50.8575L32 33.2875ZM24.6775 32L10 45.4525V18.5475L24.6775 32ZM27.6375 34.7125L30.6375 37.475C31.0065 37.8137 31.4891 38.0017 31.99 38.0017C32.4909 38.0017 32.9735 37.8137 33.3425 37.475L36.3425 34.7125L50.8425 48H13.1425L27.6375 34.7125ZM39.3225 32L54 18.545V45.455L39.3225 32Z" fill="#131315"/>
</svg>
