<svg width="64" height="64" viewBox="0 0 64 64" fill="none" xmlns="http://www.w3.org/2000/svg">
<path d="M40.8851 23.1147C43.1951 23.0454 45.3873 22.079 46.9968 20.4205C48.6063 18.762 49.5065 16.5418 49.5065 14.2307C49.5065 11.9196 48.6063 9.6994 46.9968 8.0409C45.3873 6.38239 43.1951 5.41601 40.8851 5.34668H23.1144C20.8044 5.41601 18.6122 6.38239 17.0027 8.0409C15.3932 9.6994 14.493 11.9196 14.493 14.2307C14.493 16.5418 15.3932 18.762 17.0027 20.4205C18.6122 22.079 20.8044 23.0454 23.1144 23.1147C20.7842 23.155 18.563 24.1091 16.9294 25.7712C15.2958 27.4334 14.3804 29.6708 14.3804 32.0013C14.3804 34.3319 15.2958 36.5693 16.9294 38.2314C18.563 39.8936 20.7842 40.8476 23.1144 40.888C20.7956 40.9448 18.5908 41.9059 16.9709 43.566C15.3509 45.2262 14.4441 47.4538 14.4441 49.7733C14.4441 52.0929 15.3509 54.3205 16.9709 55.9807C18.5908 57.6408 20.7956 58.6019 23.1144 58.6587C25.471 58.6573 27.7306 57.7203 29.3967 56.0537C31.0628 54.3871 31.9991 52.1272 31.9998 49.7707V23.1147H40.8851Z" fill="#131315"/>
<path d="M40.8853 40.8853C45.7926 40.8853 49.7707 36.9072 49.7707 32C49.7707 27.0927 45.7926 23.1146 40.8853 23.1146C35.9781 23.1146 32 27.0927 32 32C32 36.9072 35.9781 40.8853 40.8853 40.8853Z" fill="black"/>
</svg>
