<svg width="64" height="64" viewBox="0 0 64 64" fill="none" xmlns="http://www.w3.org/2000/svg">
<path d="M57.6535 29.6214L34.3708 6.34403C33.7252 5.70129 32.8512 5.34045 31.9402 5.34045C31.0291 5.34045 30.1552 5.70129 29.5095 6.34403L24.6855 11.1734L30.8162 17.3067C31.5395 17.0623 32.3168 17.0255 33.06 17.2004C33.8032 17.3754 34.4825 17.7551 35.0209 18.2965C35.5592 18.8379 35.9351 19.5193 36.1058 20.2635C36.2765 21.0076 36.2353 21.7848 35.9868 22.5067L41.8908 28.4187C42.7649 28.112 43.7174 28.1119 44.5916 28.4183C45.4658 28.7248 46.2096 29.3197 46.7008 30.1051C47.1921 30.8905 47.4014 31.8196 47.2944 32.7398C47.1874 33.6599 46.7705 34.5163 46.1122 35.168C44.5148 36.768 41.9362 36.768 40.3362 35.168C39.7678 34.5991 39.3796 33.8754 39.2198 33.0873C39.06 32.2992 39.1357 31.4814 39.4375 30.736L33.9068 25.2347V39.7334C34.2962 39.9227 34.6695 40.184 34.9922 40.5067C35.7546 41.2745 36.1825 42.3126 36.1825 43.3947C36.1825 44.4767 35.7546 45.5149 34.9922 46.2827C34.6117 46.6638 34.1599 46.9661 33.6625 47.1723C33.1651 47.3786 32.6319 47.4847 32.0935 47.4847C31.555 47.4847 31.0219 47.3786 30.5245 47.1723C30.0271 46.9661 29.5753 46.6638 29.1948 46.2827C28.8152 45.9042 28.514 45.4545 28.3085 44.9594C28.1031 44.4642 27.9973 43.9334 27.9973 43.3974C27.9973 42.8613 28.1031 42.3305 28.3085 41.8354C28.514 41.3402 28.8152 40.8905 29.1948 40.512C29.6002 40.112 30.0535 39.808 30.5388 39.608V24.968C30.0402 24.7639 29.587 24.463 29.2054 24.0826C28.8238 23.7023 28.5214 23.2501 28.3156 22.7522C28.1098 22.2543 28.0047 21.7206 28.0064 21.1818C28.0081 20.643 28.1165 20.11 28.3255 19.6134L22.2988 13.5574L6.3335 29.5094C5.00016 30.8534 5.00016 33.0294 6.3335 34.3734L29.6162 57.6507C29.9347 57.9701 30.3132 58.2235 30.7298 58.3963C31.1464 58.5692 31.5931 58.6582 32.0442 58.6582C32.4952 58.6582 32.9419 58.5692 33.3585 58.3963C33.7752 58.2235 34.1536 57.9701 34.4722 57.6507L57.6455 34.48C57.9664 34.1623 58.2213 33.7842 58.3956 33.3676C58.5698 32.951 58.6598 32.504 58.6606 32.0524C58.6613 31.6008 58.5727 31.1535 58.3999 30.7363C58.227 30.319 57.9734 29.9401 57.6535 29.6214Z" fill="#131315"/>
</svg>
