<svg width="64" height="64" viewBox="0 0 64 64" fill="none" xmlns="http://www.w3.org/2000/svg">
<path fill-rule="evenodd" clip-rule="evenodd" d="M32.0695 5.33337C17.3788 5.33337 5.47217 17.24 5.47217 31.9307C5.47217 43.68 13.0908 53.6507 23.6615 57.1707C24.9922 57.4107 25.4722 56.592 25.4722 55.888C25.4722 55.256 25.4508 53.5814 25.4428 51.3654C18.0428 52.9707 16.4802 47.7974 16.4802 47.7974C15.2748 44.7254 13.5282 43.9067 13.5282 43.9067C11.1148 42.256 13.7122 42.2934 13.7122 42.2934C16.3842 42.48 17.7842 45.0347 17.7842 45.0347C20.1575 49.0987 24.0135 47.9254 25.5228 47.2454C25.7655 45.5254 26.4588 44.352 27.2162 43.688C21.3122 43.0187 15.1042 40.736 15.1042 30.5414C15.1042 27.6427 16.1415 25.264 17.8348 23.408C17.5655 22.7334 16.6455 20.0267 18.0988 16.368C18.0988 16.368 20.3308 15.6507 25.4108 19.0907C27.5804 18.5005 29.8184 18.1992 32.0668 18.1947C34.3153 18.1984 36.5534 18.4996 38.7228 19.0907C43.8055 15.648 46.0348 16.368 46.0348 16.368C47.4882 20.0267 46.5762 22.7334 46.2988 23.408C48.0055 25.264 49.0295 27.64 49.0295 30.5414C49.0295 40.7627 42.8162 43.008 36.8908 43.6667C37.8375 44.488 38.6908 46.1094 38.6908 48.5894C38.6908 52.1467 38.6588 55.016 38.6588 55.888C38.6588 56.6 39.1335 57.4267 40.4908 57.1654C51.0562 53.64 58.6668 43.6774 58.6668 31.9307C58.6668 17.24 46.7602 5.33337 32.0695 5.33337Z" fill="#131315"/>
</svg>
