<svg width="64" height="64" viewBox="0 0 64 64" fill="none" xmlns="http://www.w3.org/2000/svg">
<path d="M12 16C12 13.7909 13.7909 12 16 12H48C50.2091 12 52 13.7909 52 16V48C52 50.2091 50.2091 52 48 52H16C13.7909 52 12 50.2091 12 48V16ZM48.7233 42.46C48.4317 40.635 47.2433 39.1017 43.7183 37.6717C42.4917 37.0967 41.1283 36.6967 40.7233 35.7717C40.5717 35.2217 40.5483 34.9217 40.6467 34.5967C40.8967 33.52 42.1717 33.1967 43.1717 33.4967C43.8217 33.6967 44.4217 34.1967 44.7983 34.9967C46.5217 33.87 46.5217 33.87 47.7233 33.1217C47.2733 32.4217 47.05 32.12 46.7467 31.8217C45.6967 30.6467 44.2983 30.0467 42.0233 30.0983L40.8483 30.2467C39.7217 30.5217 38.6483 31.1217 37.9983 31.9217C36.0983 34.0733 36.6467 37.8233 38.9467 39.3733C41.2217 41.0733 44.5483 41.4467 44.9733 43.0483C45.3733 44.9983 43.5233 45.6233 41.6967 45.3983C40.345 45.0983 39.5967 44.4217 38.7717 43.1717L35.7217 44.9233C36.0717 45.7233 36.4717 46.0717 37.0717 46.7717C39.9717 49.6983 47.2217 49.5483 48.5233 45.0983C48.5717 44.9483 48.9233 43.9233 48.6467 42.3483L48.7233 42.46ZM33.7517 30.385H30.005C30.005 33.615 29.99 36.825 29.99 40.06C29.99 42.1133 30.095 43.9983 29.76 44.5783C29.21 45.7267 27.7933 45.58 27.15 45.3783C26.49 45.0517 26.155 44.6017 25.7667 43.9533C25.6617 43.7783 25.5833 43.6267 25.555 43.6267L22.5133 45.5017C23.0217 46.5517 23.7633 47.455 24.72 48.03C26.145 48.88 28.06 49.155 30.065 48.705C31.37 48.3283 32.495 47.5533 33.0833 46.3533C33.9333 44.8033 33.7533 42.9033 33.745 40.7767C33.765 37.3533 33.745 33.9283 33.745 30.4783L33.7517 30.385Z" fill="#131315"/>
</svg>
