<svg width="64" height="64" viewBox="0 0 64 64" fill="none" xmlns="http://www.w3.org/2000/svg">
<path d="M39.7498 37.1117C40.6325 36.5098 41.8575 35.9887 41.8575 35.9887C41.8575 35.9887 38.3717 36.6176 34.9041 36.9051C30.6618 37.2555 26.1042 37.3274 23.8164 37.0219C18.4032 36.3032 26.7887 34.3176 26.7887 34.3176C26.7887 34.3176 23.5372 34.102 19.5291 36.0246C14.8004 38.3066 31.2382 39.3488 39.7498 37.1117ZM32.0578 34.2278C30.3465 30.3915 24.573 27.0224 32.0578 21.1287C41.3945 13.7796 36.6064 9 36.6064 9C38.5429 16.5917 29.7971 18.8917 26.6356 23.6084C24.483 26.8337 27.6894 30.2927 32.0578 34.2278ZM42.3799 18.3975C42.3889 18.3975 26.5996 22.3326 34.1385 30.9935C36.3632 33.545 33.553 35.845 33.553 35.845C33.553 35.845 39.2004 32.9341 36.6064 29.2954C34.1835 25.8994 32.328 24.2103 42.3799 18.3975ZM41.8304 42.6999C41.7812 42.7855 41.7206 42.8641 41.6503 42.9335C53.2063 39.9058 48.955 32.2513 43.4337 34.1919C43.1355 34.3012 42.8778 34.4986 42.6951 34.7579C43.0175 34.6415 43.3489 34.5513 43.6859 34.4883C46.478 33.9044 50.4862 38.2168 41.8304 42.6999ZM46.0781 48.2971C46.0781 48.2971 47.3841 49.3663 44.646 50.2018C39.431 51.774 22.9572 52.2502 18.3816 50.2647C16.7333 49.5549 19.8227 48.5577 20.7955 48.351C21.8043 48.1354 22.3897 48.1714 22.3897 48.1714C20.5613 46.8866 10.5635 50.6959 17.3098 51.783C35.7057 54.7658 50.8518 50.4444 46.0781 48.2971ZM25.9421 44.5777C18.8536 46.5542 30.2564 50.633 39.2815 46.7788C38.4013 46.4377 37.5516 46.023 36.7415 45.539C32.7154 46.3026 30.8509 46.3565 27.1941 45.9433C24.1767 45.6019 25.9421 44.5777 25.9421 44.5777ZM42.1367 53.3104C35.0482 54.64 26.3024 54.4873 21.1233 53.6338C21.1233 53.6248 22.1862 54.5053 27.6444 54.8556C35.9489 55.3857 48.7028 54.5592 49 50.642C49 50.642 48.4236 52.1244 42.1367 53.3104ZM38.2096 40.7144C32.8775 41.7386 29.7881 41.7117 25.888 41.3074C22.8707 40.9929 24.8432 39.5375 24.8432 39.5375C17.0252 42.125 29.1846 45.0538 40.1101 41.8644C39.404 41.6157 38.757 41.2242 38.2096 40.7144Z" fill="black"/>
</svg>
