<svg width="200" height="200" viewBox="0 0 200 200" fill="none" xmlns="http://www.w3.org/2000/svg">
<path fill-rule="evenodd" clip-rule="evenodd" d="M45.5423 160.953C52.9484 183.603 74.6307 200 100.225 200C125.877 200 147.599 183.529 154.958 160.801C178.175 153.597 195 132.332 195 107.22C195 82.1647 178.25 60.9389 155.114 53.6887C147.91 30.708 126.061 14 100.225 14C74.4472 14 52.6377 30.6335 45.3852 53.5348C21.9913 60.6346 5 81.985 5 107.22C5 132.512 22.0674 153.902 45.5423 160.953ZM106.12 112.991C104.192 113.243 102.224 113.373 100.225 113.373C98.0677 113.373 95.9463 113.222 93.8716 112.929C93.6196 111.061 93.4896 109.156 93.4896 107.22C93.4896 105.13 93.6414 103.074 93.9348 101.062C95.9893 100.775 98.0895 100.627 100.225 100.627C102.202 100.627 104.148 100.754 106.056 101.001C106.355 103.032 106.51 105.108 106.51 107.22C106.51 109.177 106.377 111.103 106.12 112.991ZM101.947 126.369C101.375 126.385 100.801 126.393 100.225 126.393C99.4954 126.393 98.7688 126.38 98.0456 126.354C98.6443 127.537 99.2968 128.69 100 129.809C100.7 128.695 101.35 127.547 101.947 126.369ZM108.981 140.078C112.573 135.207 115.387 129.751 117.245 123.882C123.24 122.063 128.814 119.308 133.79 115.792C140.362 123.332 144.33 133.114 144.33 143.803C144.33 145.894 144.179 147.95 143.885 149.961C141.831 150.248 139.73 150.397 137.595 150.397C126.676 150.397 116.683 146.513 108.981 140.078ZM91.0194 140.078C87.3961 135.165 84.5641 129.655 82.7063 123.728C76.9012 121.909 71.4981 119.21 66.6607 115.792C60.088 123.332 56.12 133.114 56.12 143.803C56.12 145.915 56.2749 147.992 56.5742 150.023C58.4821 150.27 60.4285 150.397 62.4052 150.397C73.3245 150.397 83.317 146.513 91.0194 140.078ZM60.9132 163.398C61.409 163.411 61.9063 163.417 62.4052 163.417C76.7841 163.417 89.9282 158.242 100 149.69C110.072 158.242 123.216 163.417 137.595 163.417C138.247 163.417 138.897 163.406 139.544 163.385C132.252 177.389 117.383 186.98 100.225 186.98C83.0731 186.98 68.2077 177.395 60.9132 163.398ZM42.8606 145.937C42.8336 145.229 42.82 144.518 42.82 143.803C42.82 129.727 48.1066 116.86 56.8421 107C48.1066 97.1403 42.82 84.2729 42.82 70.1967C42.82 69.6329 42.8285 69.071 42.8453 68.5111C28.2998 75.5683 18.3 90.2512 18.3 107.22C18.3 124.196 28.3068 138.883 42.8606 145.937ZM56.5105 64.426C56.253 66.3137 56.12 68.24 56.12 70.1967C56.12 80.8861 60.088 90.6682 66.6607 98.2084C71.5413 94.7592 76.9979 92.0426 82.8622 90.223C84.7209 84.4821 87.496 79.1404 91.0194 74.3625C83.317 67.9282 73.3245 64.0437 62.4052 64.0437C60.4065 64.0437 58.4388 64.1738 56.5105 64.426ZM100 84.6313C99.386 85.6086 98.8106 86.6116 98.2759 87.6384C98.923 87.6173 99.5728 87.6066 100.225 87.6066C100.724 87.6066 101.221 87.6129 101.717 87.6252C101.185 86.6031 100.611 85.6044 100 84.6313ZM108.981 74.3625C112.473 79.098 115.23 84.3874 117.088 90.0703C123.142 91.889 128.771 94.6614 133.79 98.2084C140.362 90.6682 144.33 80.8861 144.33 70.1967C144.33 68.2615 144.2 66.3561 143.948 64.4884C141.874 64.1954 139.752 64.0437 137.595 64.0437C126.676 64.0437 116.683 67.9282 108.981 74.3625ZM119.77 105.087C120.979 105.673 122.157 106.312 123.3 107C122.162 107.686 120.989 108.322 119.785 108.906C119.802 108.346 119.81 107.784 119.81 107.22C119.81 106.506 119.797 105.795 119.77 105.087ZM100 64.7506C110.072 56.199 123.216 51.0237 137.595 51.0237C138.325 51.0237 139.051 51.037 139.774 51.0635C132.568 36.8161 117.565 27.02 100.225 27.02C82.8911 27.02 67.8926 36.8092 60.6836 51.0485C61.2554 51.032 61.8293 51.0237 62.4052 51.0237C76.7841 51.0237 89.9282 56.199 100 64.7506ZM80.1896 107.22C80.1896 107.709 80.196 108.196 80.2086 108.681C79.1645 108.16 78.1443 107.599 77.1503 107C78.1486 106.399 79.1732 105.836 80.2221 105.312C80.2005 105.946 80.1896 106.582 80.1896 107.22ZM157.63 70.1967C157.63 69.7083 157.624 69.2214 157.611 68.736C171.909 75.877 181.7 90.4294 181.7 107.22C181.7 124.017 171.903 138.573 157.598 145.711C157.62 145.078 157.63 144.442 157.63 143.803C157.63 129.727 152.344 116.86 143.608 107C152.344 97.1403 157.63 84.2729 157.63 70.1967Z" fill="#C9C5BA"/>
<path fill-rule="evenodd" clip-rule="evenodd" d="M100 0C155.228 -2.41411e-06 200 44.7715 200 100C200 155.228 155.228 200 100 200C44.7715 200 2.41411e-06 155.228 0 100C-2.41412e-06 44.7715 44.7715 2.41411e-06 100 0ZM100 0C138.108 -1.66574e-06 169 30.8923 169 69C169 107.108 138.108 138 100 138C61.8924 138 31 107.108 31 69C31 30.8923 61.8924 1.66574e-06 100 0ZM132 69C132 51.3269 117.673 37 100 37C82.3269 37 68 51.3269 68 69C68 86.6731 82.3269 101 100 101C117.673 101 132 86.6731 132 69Z" fill="#FBFAFB"/>
</svg>
