<svg width="64" height="64" viewBox="0 0 64 64" fill="none" xmlns="http://www.w3.org/2000/svg">
<path d="M31.2873 12C30.9935 12 30.771 12.0022 30.69 12.0112C30.604 12.02 30.3302 12.0462 30.084 12.0658C24.4026 12.578 19.0811 15.643 15.7105 20.3538C13.8337 22.9733 12.6333 25.9443 12.18 29.0917C12.0197 30.19 12 30.5145 12 32.004C12 33.4935 12.02 33.818 12.18 34.9167C13.2667 42.4267 18.6119 48.7365 25.8613 51.0742C27.1595 51.4927 28.528 51.778 30.0842 51.95C30.6902 52.0167 33.3098 52.0167 33.9158 51.95C36.602 51.6528 38.8779 50.9883 41.1221 49.8428C41.4662 49.6668 41.5327 49.62 41.4859 49.5807C41.4546 49.5575 39.9881 47.591 38.2287 45.214L35.0304 40.894L31.0225 34.9635C28.8173 31.7028 27.003 29.0368 26.9873 29.0368C26.9716 29.0325 26.9561 31.668 26.9481 34.8852C26.937 40.5188 26.9326 40.7455 26.8621 40.8785C26.7605 41.0702 26.6821 41.1482 26.5181 41.2342C26.3931 41.2965 26.2835 41.3083 25.6931 41.3083H25.0164L24.8368 41.195C24.7254 41.1252 24.6348 41.0266 24.5748 40.9097L24.4926 40.7337L24.5014 32.8953L24.5126 25.053L24.6336 24.9005C24.6963 24.8183 24.8293 24.713 24.9229 24.6622C25.0833 24.5838 25.1459 24.576 25.8223 24.576C26.6201 24.576 26.753 24.6072 26.9601 24.8338C27.019 24.8967 29.189 28.165 31.7852 32.1018C34.4138 36.0865 37.0441 40.0702 39.6759 44.0528L42.8429 48.8498L43.0029 48.7443C44.4226 47.8217 45.9238 46.508 47.1125 45.1398C49.6423 42.235 51.273 38.6932 51.8203 34.9165C51.9805 33.818 52 33.4932 52 32.004C52 30.5145 51.98 30.19 51.8203 29.0913C50.7333 21.5813 45.3883 15.2715 38.1391 12.9338C36.8604 12.5193 35.4997 12.2338 33.9749 12.0618C33.6932 12.0325 32.1687 12.0007 31.2873 12ZM38.0682 24.0283C38.6471 24.0283 38.7486 24.0372 38.8777 24.1067C39.0656 24.2003 39.2177 24.3803 39.2727 24.5678C39.3037 24.6695 39.3117 26.8433 39.3037 31.7418L39.2926 38.771L38.0532 36.871L36.8097 34.971V29.861C36.8097 26.5577 36.8252 24.7005 36.8487 24.6107C36.9112 24.3918 37.048 24.2197 37.2359 24.1182C37.396 24.0358 37.4542 24.0283 38.0682 24.0283Z" fill="#131315"/>
</svg>
