<svg width="64" height="64" viewBox="0 0 64 64" fill="none" xmlns="http://www.w3.org/2000/svg">
<path d="M28.6402 34.3736V34.0802C28.8002 33.6802 28.9602 33.3069 29.1469 32.9336C30.6228 29.8143 30.8704 26.2537 29.8402 22.9602C29.7864 22.4899 29.5884 22.0477 29.2733 21.6944C28.9581 21.3411 28.5414 21.0939 28.0802 20.9869C26.0964 20.8488 24.1286 21.4259 22.5336 22.6136V23.0936C22.7087 25.2354 22.6551 27.3898 22.3736 29.5202C22.2223 30.4765 22.2926 31.4547 22.5793 32.3794C22.866 33.3041 23.3612 34.1506 24.0269 34.8536C24.5172 35.3752 25.1076 35.7928 25.7627 36.0814C26.4179 36.37 27.1244 36.5238 27.8402 36.5336C28.0681 35.7998 28.3351 35.0787 28.6402 34.3736ZM26.6669 22.8802C26.5171 22.7105 26.4321 22.4932 26.4269 22.2669C26.4431 22.2001 26.4727 22.1372 26.514 22.0822C26.5553 22.0272 26.6073 21.9812 26.6669 21.9469C27.0605 21.7426 27.5114 21.6769 27.9469 21.7602C28.6136 21.7602 29.2802 22.1869 29.2269 22.6669C29.1274 22.931 28.9481 23.1577 28.714 23.3154C28.4798 23.473 28.2024 23.554 27.9202 23.5469H27.7602C27.3221 23.4777 26.929 23.2381 26.6669 22.8802Z" fill="black"/>
<path d="M21.0133 29.3332C21.2538 27.298 21.3074 25.2449 21.1733 23.1999V22.4532C21.0682 18.051 22.5228 13.7534 25.2799 10.3199C22.6133 9.46657 16.2133 7.65324 12.2933 10.5866C9.89327 12.2932 8.77327 15.4932 9.01327 20.0532C9.54449 24.0371 10.4371 27.9644 11.6799 31.7866C13.4933 37.7066 15.5466 41.4399 17.3066 42.0532C17.5733 42.0532 18.3999 42.3999 19.5999 40.9599C21.3066 38.9332 22.8799 37.1999 23.5999 36.4266L23.0933 35.9199C22.258 35.0595 21.6351 34.0161 21.274 32.8726C20.9129 31.7292 20.8236 30.5173 21.0133 29.3332ZM30.3466 38.3999C29.9199 38.2399 29.7066 38.1332 29.2266 38.6932C28.9412 38.9804 28.6824 39.2928 28.4533 39.6266C27.5199 40.7732 27.1199 41.1732 24.4266 41.7332C24.0618 41.7938 23.7044 41.8921 23.3599 42.0266C23.6564 42.2343 23.9922 42.3795 24.3466 42.4532C25.5399 42.8568 26.8312 42.8675 28.031 42.4835C29.2308 42.0996 30.276 41.3413 31.0133 40.3199C31.0821 40.174 31.1179 40.0146 31.1179 39.8532C31.1179 39.6919 31.0821 39.5325 31.0133 39.3866C30.9289 38.983 30.6895 38.6287 30.3466 38.3999ZM47.1199 22.8799C47.2437 22.184 47.315 21.4798 47.3333 20.7732C45.5733 20.5599 43.5466 20.5866 42.7466 21.7332C41.1999 23.9466 44.2399 29.4132 45.4133 31.7332C45.671 32.1449 45.9026 32.5724 46.1066 33.0132C46.2131 33.301 46.347 33.5778 46.5066 33.8399C47.201 32.029 47.3494 30.0542 46.9333 28.1599C46.8056 27.2321 46.7433 26.2965 46.7466 25.3599C46.806 24.5247 46.9308 23.6955 47.1199 22.8799ZM45.6266 22.4532C45.3957 22.6887 45.0976 22.847 44.7733 22.9066H44.6133C44.3597 22.9075 44.1118 22.8316 43.9024 22.6888C43.6929 22.546 43.5316 22.3429 43.4399 22.1066C43.4399 21.7332 43.9733 21.4666 44.6133 21.3599C45.2533 21.2532 45.8933 21.3599 45.9466 21.7599C45.9344 22.0239 45.8196 22.2727 45.6266 22.4532Z" fill="black"/>
<path d="M45.3334 13.0133C47.0901 14.9668 48.3441 17.3192 48.9867 19.8667C49.0008 19.9996 49.0008 20.1337 48.9867 20.2667C48.9955 21.2143 48.9151 22.1607 48.7467 23.0933C48.6202 23.8522 48.5401 24.6181 48.5067 25.3867C48.5013 26.279 48.5637 27.1704 48.6934 28.0533C49.232 30.5002 48.8921 33.0586 47.7334 35.28L47.92 35.4933C53.84 26.1867 55.92 15.3867 54.0267 13.0133C52.8139 11.4886 51.267 10.2628 49.5055 9.43061C47.7439 8.59837 45.8147 8.1819 43.8667 8.21333C42.4064 8.19295 40.9485 8.33606 39.52 8.64C41.7598 9.64577 43.7462 11.1401 45.3334 13.0133Z" fill="black"/>
<path d="M57.7332 37.3333C57.5465 36.7999 56.7465 35.0666 53.8132 35.6799C52.935 35.8668 52.0433 35.9827 51.1465 36.0266C53.5539 31.9553 55.4017 27.5781 56.6398 23.0133C57.6265 19.1466 58.3998 13.9733 56.3465 11.3333C54.8384 9.42017 52.9073 7.88274 50.7049 6.84169C48.5025 5.80064 46.0887 5.28431 43.6532 5.33326C41.4324 5.31902 39.2218 5.63354 37.0932 6.26659C35.8159 6.0421 34.5231 5.91728 33.2265 5.89326C30.9311 5.84609 28.6653 6.41714 26.6665 7.54659C25.1246 7.03845 23.5469 6.64625 21.9465 6.37326C20.045 5.88845 18.065 5.79446 16.1261 6.09698C14.1872 6.39949 12.3299 7.09223 10.6665 8.13326C7.35984 10.4533 5.83984 14.5066 6.10651 20.1866C6.61558 24.41 7.50816 28.5784 8.77318 32.6399C9.52557 35.1811 10.5167 37.6454 11.7332 39.9999C12.6 42.1683 14.2724 43.9171 16.3998 44.8799C17.1709 45.131 17.995 45.172 18.7872 44.9986C19.5793 44.8251 20.3109 44.4436 20.9065 43.8933C21.6203 44.6699 22.5483 45.2174 23.5732 45.4666C25.646 46.0377 27.8495 45.9064 29.8398 45.0933V47.2533C29.8174 49.3795 30.0957 51.4983 30.6665 53.5466C30.674 53.662 30.674 53.7778 30.6665 53.8933C31.0221 55.1319 31.6716 56.2663 32.5598 57.1999C33.6339 58.2048 35.0631 58.742 36.5332 58.6933C37.1616 58.6957 37.7882 58.6241 38.3998 58.4799C39.5589 58.3387 40.6777 57.9662 41.6901 57.3845C42.7024 56.8027 43.5876 56.0236 44.2932 55.0933C46.0994 51.8406 46.9412 48.1405 46.7198 44.4266V43.7333H47.1732C49.3607 43.8848 51.5531 43.5194 53.5732 42.6666C54.7732 42.0533 58.6665 39.9999 57.7332 37.3333ZM52.9065 41.2533C51.3815 41.8674 49.7505 42.1754 48.1065 42.1599C47.3948 42.1789 46.6844 42.089 45.9998 41.8933C45.7332 44.3999 45.1465 49.0666 44.7998 51.0133C44.6975 52.5838 44.0361 54.0658 42.9355 55.1909C41.8349 56.316 40.3678 57.0097 38.7998 57.1466C38.2211 57.2691 37.6314 57.3316 37.0398 57.3333C35.8788 57.3062 34.7584 56.9009 33.8487 56.1789C32.939 55.457 32.2899 54.4578 31.9998 53.3333C31.3124 49.7681 31.0616 46.1324 31.2532 42.5066C29.955 43.6799 28.2558 44.31 26.5065 44.2666C25.66 44.2524 24.8184 44.136 23.9998 43.9199C23.7598 43.9199 21.6798 43.3066 21.7065 41.9733C21.7332 40.6399 23.4665 40.3999 24.1065 40.2666C26.3998 39.7866 26.5598 39.5999 27.2798 38.6933C27.4369 38.4708 27.606 38.2572 27.7865 38.0533C26.7519 38.0145 25.7398 37.7409 24.8265 37.2533C24.2132 37.9199 22.5332 39.7333 20.7198 41.8933C20.3903 42.3834 19.9513 42.7903 19.4377 43.0818C18.924 43.3734 18.3496 43.5416 17.7598 43.5733C17.4503 43.6177 17.136 43.6177 16.8265 43.5733C14.4798 42.6666 12.2665 38.7999 10.2398 31.9999C8.98157 28.0638 8.0889 24.02 7.57318 19.9199C7.30651 14.7999 8.63984 11.1733 11.4932 9.25326C16.6132 5.62659 24.8265 8.42659 26.6932 9.09326C28.5925 7.83537 30.8446 7.2186 33.1198 7.33326C34.3796 7.33458 35.6341 7.49587 36.8532 7.81326C38.999 7.08299 41.2533 6.72231 43.5198 6.74659C45.7214 6.68606 47.9071 7.13606 49.9057 8.06134C51.9043 8.98663 53.6616 10.3621 55.0398 12.0799C56.8798 14.4266 55.6532 20.0799 55.0398 22.4533C53.6716 27.5709 51.5026 32.4399 48.6132 36.8799C49.0398 37.1733 50.3465 37.7066 53.9465 36.8799C55.1732 36.6133 55.8932 36.8799 56.1332 37.5466C56.7198 39.0133 54.2665 40.5599 52.9065 41.1999V41.2533Z" fill="black"/>
<path d="M46.48 36.2398C45.8005 35.4373 45.2433 34.5387 44.8267 33.5731C44.8267 33.3865 44.5067 32.9331 44.2134 32.4265C42.6667 29.7598 39.44 23.8398 41.5467 20.8531C42.2559 20.099 43.1552 19.5499 44.15 19.2637C45.1449 18.9774 46.1985 18.9646 47.2 19.2265C46.5145 17.335 45.4937 15.5826 44.1867 14.0531C42.854 12.4113 41.1767 11.0826 39.2735 10.1609C37.3703 9.23929 35.2878 8.7473 33.1734 8.71979C31.9256 8.64114 30.6752 8.82607 29.5037 9.26254C28.3321 9.69901 27.2655 10.3772 26.3734 11.2531C24.1029 13.9279 22.8057 17.2931 22.6934 20.7998L23.0934 20.5865C24.2021 19.9884 25.415 19.6083 26.6667 19.4665C27.1847 19.3465 27.7218 19.3346 28.2446 19.4316C28.7674 19.5286 29.2645 19.7324 29.705 20.0302C30.1455 20.328 30.5198 20.7135 30.8045 21.1625C31.0893 21.6115 31.2784 22.1144 31.36 22.6398C32.4564 26.2463 32.1809 30.1307 30.5867 33.5465C30.4133 33.883 30.2619 34.2304 30.1334 34.5865V34.8798C29.8667 35.5998 29.6267 36.2665 29.4667 36.8265C29.9804 36.7286 30.5119 36.7939 30.9867 37.0131C31.3878 37.204 31.7431 37.4791 32.0284 37.8196C32.3137 38.1601 32.5223 38.5581 32.64 38.9865V39.4131C32.653 39.4926 32.653 39.5736 32.64 39.6531C32.3528 44.017 32.5495 48.3992 33.2267 52.7198C33.3468 53.2842 33.5875 53.8159 33.9325 54.2784C34.2774 54.741 34.7183 55.1235 35.2249 55.3996C35.7316 55.6757 36.292 55.839 36.8676 55.8781C37.4433 55.9173 38.0207 55.8314 38.56 55.6265C39.8298 55.5408 41.0222 54.9854 41.9047 54.0684C42.7871 53.1514 43.2965 51.9386 43.3334 50.6665C43.7334 48.3198 44.5334 41.7331 44.64 40.3198C44.64 37.4931 46.0267 36.9331 46.88 36.6931L46.48 36.2398Z" fill="black"/>
<path d="M48 38.2132L47.7867 38.0532H47.4667C46.7733 38.2399 46.1333 38.4266 46.2133 40.1866C47.0003 40.4987 47.8529 40.6088 48.6933 40.5066C49.9543 40.4535 51.1977 40.1922 52.3733 39.7332C53.1445 39.3853 53.8555 38.9173 54.48 38.3466C52.3746 39.0848 50.0733 39.0374 48 38.2132Z" fill="black"/>
</svg>
