<svg width="22" height="28" viewBox="0 0 22 28" fill="none" xmlns="http://www.w3.org/2000/svg">
<path d="M7.75 1.5H14.5L20 6L21 12.5L18.5 18.5L13 23L14.5 26.25H7.75L9.5 23L3.5 18.5L1 12.5L2 6L7.75 1.5Z" fill="#F11D36"/>
<path d="M11 0C8.08363 0.00330842 5.28766 1.1633 3.22548 3.22548C1.1633 5.28766 0.00330842 8.08363 0 11C0 13.9288 1.175 17.1775 3.14125 19.6875C4.65125 21.6137 6.45375 22.9375 8.38 23.5737L7.08125 26.6063C7.01611 26.7583 6.98972 26.9242 7.00443 27.0889C7.01914 27.2537 7.0745 27.4123 7.16555 27.5504C7.2566 27.6885 7.38048 27.8019 7.52612 27.8803C7.67175 27.9588 7.83457 27.9999 8 28H14C14.1654 27.9999 14.3283 27.9588 14.4739 27.8803C14.6195 27.8019 14.7434 27.6885 14.8345 27.5504C14.9255 27.4123 14.9809 27.2537 14.9956 27.0889C15.0103 26.9242 14.9839 26.7583 14.9188 26.6063L13.625 23.5737C15.55 22.94 17.3538 21.6137 18.8638 19.6875C20.825 17.1775 22 13.9288 22 11C21.9967 8.08363 20.8367 5.28766 18.7745 3.22548C16.7123 1.1633 13.9164 0.00330842 11 0ZM12.4837 26H9.51625L10.3837 23.9762C10.5887 23.9912 10.7938 24 11 24C11.2062 24 11.4112 23.9912 11.6162 23.9762L12.4837 26ZM17.2838 18.4538C15.4925 20.7413 13.2613 22 11 22C8.73875 22 6.5075 20.7413 4.71625 18.4538C3.015 16.2838 2 13.5 2 11C2 8.61305 2.94821 6.32387 4.63604 4.63604C6.32387 2.94821 8.61305 2 11 2C13.3869 2 15.6761 2.94821 17.364 4.63604C19.0518 6.32387 20 8.61305 20 11C20 13.5 18.985 16.2838 17.2838 18.4538ZM17.1588 10.9862C17.1063 10.9948 17.0532 10.9994 17 11C16.7636 10.9997 16.535 10.9157 16.3547 10.7628C16.1743 10.6099 16.054 10.3981 16.015 10.165C15.8301 9.12442 15.3302 8.16568 14.5829 7.41835C13.8356 6.67103 12.8768 6.17114 11.8363 5.98625C11.7058 5.96566 11.5806 5.91942 11.4681 5.8502C11.3556 5.78099 11.2579 5.69016 11.1807 5.58297C11.1035 5.47579 11.0483 5.35436 11.0183 5.22572C10.9883 5.09707 10.984 4.96375 11.0058 4.83346C11.0276 4.70317 11.075 4.57849 11.1453 4.46662C11.2155 4.35475 11.3073 4.25791 11.4151 4.1817C11.523 4.10548 11.645 4.05139 11.7739 4.02257C11.9028 3.99374 12.0362 3.99075 12.1663 4.01375C13.616 4.27099 14.9517 4.96725 15.9929 6.00838C17.034 7.04951 17.7303 8.38527 17.9875 9.835C18.0091 9.96461 18.005 10.0972 17.9754 10.2252C17.9458 10.3532 17.8912 10.4742 17.8148 10.5811C17.7385 10.688 17.6417 10.7788 17.5302 10.8483C17.4187 10.9179 17.2946 10.9647 17.165 10.9862H17.1588Z" fill="black"/>
</svg>
