<svg width="64" height="64" viewBox="0 0 64 64" fill="none" xmlns="http://www.w3.org/2000/svg">
<path d="M36.6292 32.0047C36.6292 33.1141 36.1886 34.1781 35.4043 34.9628C34.62 35.7474 33.5562 36.1885 32.4468 36.189C31.337 36.189 30.2727 35.7482 29.488 34.9634C28.7033 34.1787 28.2625 33.1144 28.2625 32.0047C28.2625 30.8952 28.703 29.8312 29.4874 29.0466C30.2717 28.2619 31.3355 27.8208 32.4449 27.8204C33.5547 27.8204 34.619 28.2612 35.4037 29.0459C36.1884 29.8306 36.6292 30.8949 36.6292 32.0047ZM41.5846 12C39.0657 12 35.7703 13.7965 32.4374 16.9067C29.1064 13.8133 25.8091 12.0374 23.2922 12.0374C22.5249 12.0374 21.8269 12.2115 21.2225 12.5577C18.6494 14.0416 18.073 18.6657 19.4016 24.4688C13.7053 26.2278 10 29.0405 10 32.0047C10 34.9801 13.724 37.8002 19.4372 39.5462C18.1198 45.3717 18.7074 50.0033 21.2861 51.4854C21.8849 51.8353 22.5773 52 23.3483 52C25.8653 52 29.1626 50.2035 32.4954 47.0896C35.8264 50.1848 39.1237 51.9607 41.6407 51.9607C42.408 51.9607 43.106 51.7923 43.7104 51.4461C46.2816 49.964 46.8599 45.3399 45.5312 39.535C51.207 37.7909 54.9123 34.9726 54.9123 32.0047C54.9123 29.0292 51.1883 26.2091 45.4751 24.4594C46.7925 18.6395 46.2049 14.0042 43.6262 12.5202C43.0311 12.1759 42.3406 12.0019 41.5846 12ZM41.5752 14.0398V14.051C41.9963 14.051 42.335 14.1333 42.6194 14.2887C43.8657 15.0035 44.4065 17.7226 43.9855 21.2201C43.8844 22.0809 43.7198 22.9885 43.5177 23.9149C41.7212 23.4732 39.7637 23.1345 37.7034 22.9156C36.4683 21.222 35.1864 19.6837 33.8952 18.3364C36.8744 15.5668 39.672 14.0473 41.5771 14.0416L41.5752 14.0398ZM23.2922 14.0772C25.186 14.0772 27.9967 15.5892 30.9834 18.3439C29.6996 19.6912 28.4196 21.2201 27.2033 22.9137C25.1317 23.1326 23.1724 23.4713 21.3778 23.9205C21.1682 23.0035 21.0129 22.1165 20.9025 21.2632C20.472 17.7675 21.0035 15.0503 22.2386 14.3261C22.5942 14.1577 22.9871 14.0865 23.2922 14.0772ZM32.4281 19.7848C33.2795 20.6606 34.131 21.6412 34.9731 22.7116C34.1497 22.6742 33.3076 22.648 32.4561 22.648C31.5953 22.648 30.7439 22.6667 29.9111 22.7116C30.7345 21.6412 31.586 20.6625 32.4281 19.7848ZM32.4561 24.6989C33.8409 24.6989 35.2201 24.7626 36.5768 24.873C37.3366 25.9621 38.0777 27.1242 38.7906 28.3537C39.4868 29.5513 40.1193 30.7677 40.6957 31.9953C40.1193 33.2211 39.4868 34.4468 38.8 35.6444C38.0889 36.8795 37.3535 38.0547 36.5918 39.1439C35.2295 39.2618 33.8484 39.3273 32.4561 39.3273C31.0713 39.3273 29.6922 39.2618 28.3354 39.1532C27.5757 38.0641 26.8346 36.9001 26.1216 35.6725C25.4255 34.4749 24.793 33.2585 24.2166 32.0309C24.7836 30.8014 25.4255 29.5738 26.1123 28.3743C26.8234 27.1392 27.5588 25.9677 28.3205 24.8786C29.6828 24.7588 31.0639 24.6952 32.4561 24.6952V24.6989ZM25.6538 25.1743C25.2047 25.8798 24.7556 26.6021 24.3364 27.345C23.9153 28.0749 23.5223 28.8084 23.1481 29.542C22.6522 28.3144 22.2311 27.0905 21.883 25.8985C23.0807 25.6178 24.3439 25.367 25.6538 25.1743ZM39.2398 25.1743C40.5404 25.367 41.7942 25.6047 42.9937 25.8985C42.6568 27.0812 42.2358 28.2975 41.7586 29.5158C41.3843 28.786 40.9913 28.0505 40.5609 27.3188C40.1399 26.5853 39.6908 25.8704 39.2416 25.1743H39.2398ZM44.9717 26.4374C45.8774 26.7181 46.7382 27.0306 47.5448 27.3694C50.786 28.7542 52.8819 30.5656 52.8819 32.0028C52.8725 33.44 50.7766 35.2589 47.5354 36.6344C46.7495 36.9712 45.8887 37.2744 44.9998 37.557C44.4758 35.7642 43.7909 33.8966 42.9413 31.9804C43.7834 30.0772 44.4571 28.2189 44.9717 26.4337V26.4374ZM19.905 26.4449C20.4253 28.2414 21.112 30.1071 21.9635 32.0215C21.1214 33.9247 20.444 35.7829 19.9312 37.5682C19.0255 37.2875 18.1647 36.9731 17.3675 36.6325C14.1263 35.2533 12.0304 33.44 12.0304 32.0028C12.0304 30.5656 14.1263 28.7429 17.3675 27.3694C18.1535 27.0325 19.0143 26.7294 19.905 26.4449ZM41.7586 34.4543C42.2545 35.6837 42.6756 36.9095 43.0236 38.0996C41.826 38.3934 40.5609 38.6423 39.251 38.8295C39.7001 38.1277 40.1492 37.4035 40.5703 36.6625C40.9913 35.9326 41.3825 35.1878 41.7586 34.4543ZM23.1481 34.4917C23.5223 35.2253 23.9153 35.957 24.3457 36.6905C24.7761 37.4204 25.2159 38.1352 25.665 38.8295C24.3644 38.6386 23.1106 38.3991 21.9111 38.1071C22.248 36.9282 22.6709 35.7081 23.1462 34.4898L23.1481 34.4917ZM43.5345 40.0814C43.7441 41.004 43.9088 41.8929 44.0098 42.7443C44.4402 46.24 43.9088 48.9572 42.6737 49.6833C42.3986 49.8517 42.0412 49.9228 41.6201 49.9228C39.7263 49.9228 36.9156 48.4126 33.9289 45.6561C35.2126 44.3088 36.4926 42.7818 37.709 41.0901C39.7806 40.8692 41.7399 40.5305 43.5345 40.0814ZM21.3965 40.1001C23.193 40.538 25.1504 40.8767 27.2108 41.0957C28.4458 42.7892 29.7277 44.3275 31.0189 45.673C28.0342 48.4482 25.2327 49.9677 23.3277 49.9677C22.916 49.9584 22.568 49.8742 22.2929 49.7207C21.0465 49.0096 20.5057 46.2887 20.9268 42.7911C21.0278 41.9303 21.1944 41.0246 21.3965 40.1001ZM29.9298 41.2978C30.7532 41.3352 31.5953 41.3614 32.4468 41.3614C33.3076 41.3614 34.1591 41.3427 34.9918 41.2978C34.1684 42.3682 33.317 43.3469 32.4749 44.2264C31.6234 43.3469 30.7719 42.3682 29.9298 41.2978Z" fill="black"/>
</svg>
