<svg width="64" height="64" viewBox="0 0 64 64" fill="none" xmlns="http://www.w3.org/2000/svg">
<path d="M48.4213 14.3371C47.8659 15.6709 47.1471 16.9304 46.2813 18.0867C44.4274 16.1674 42.2078 14.6399 39.754 13.5944C37.3001 12.549 34.6617 12.0068 31.9949 12.0001C29.3281 11.9933 26.687 12.5221 24.2279 13.5551C21.7688 14.5881 19.5415 16.1044 17.678 18.0142C15.8144 19.9241 14.3523 22.1887 13.3782 24.6742C12.404 27.1597 11.9377 29.8155 12.0067 32.4846C12.0757 35.1536 12.6786 37.7817 13.7798 40.2134C14.881 42.6451 16.4582 44.831 18.4179 46.6418L19.1588 47.3011C21.9701 49.6748 25.3828 51.2233 29.0189 51.7749C32.655 52.3265 36.3726 51.8597 39.7601 50.4264C43.1476 48.993 46.0728 46.6489 48.2116 43.6537C50.3505 40.6585 51.6196 37.129 51.8783 33.4562C52.4545 28.4293 50.9318 22.0013 48.4213 14.3371ZM21.2991 46.8067C21.0875 47.067 20.8036 47.2587 20.4832 47.3575C20.1628 47.4564 19.8203 47.4579 19.499 47.3619C19.1778 47.2659 18.8921 47.0768 18.6782 46.8183C18.4643 46.5599 18.3317 46.2437 18.2972 45.9099C18.2627 45.576 18.3279 45.2394 18.4844 44.9425C18.6409 44.6457 18.8818 44.402 19.1766 44.2422C19.4715 44.0824 19.807 44.0137 20.1408 44.0447C20.4746 44.0758 20.7918 44.2052 21.0521 44.4167C21.3935 44.7061 21.6098 45.1165 21.6558 45.5619C21.7019 46.0074 21.5741 46.4534 21.2991 46.8067ZM48.2978 40.8319C43.4003 47.3835 32.8642 45.1584 26.1557 45.4881C26.1557 45.4881 24.9622 45.5705 23.7685 45.7352C23.7685 45.7352 24.2213 45.5293 24.7975 45.3232C29.5305 43.6751 31.7529 43.3454 34.6339 41.862C40.0254 39.1012 45.417 33.0442 46.487 26.781C44.4291 32.7969 38.1734 37.9887 32.4937 40.0902C28.5838 41.5324 21.5461 42.9334 21.5461 42.9334L21.258 42.7686C16.4838 40.4198 16.3193 30.0362 25.0443 26.6985C28.872 25.2151 32.4937 26.0394 36.6506 25.0504C41.0543 24.0202 46.1578 20.7238 48.2156 16.3973C50.5203 23.3609 53.319 34.1567 48.2978 40.8319Z" fill="black"/>
</svg>
