<svg width="64" height="64" viewBox="0 0 64 64" fill="none" xmlns="http://www.w3.org/2000/svg">
<path d="M48.0889 12H15.9111C14.8738 12 13.879 12.4121 13.1455 13.1455C12.4121 13.879 12 14.8738 12 15.9111V48.0889C12 49.1262 12.4121 50.121 13.1455 50.8545C13.879 51.5879 14.8738 52 15.9111 52H48.0889C48.6025 52 49.1111 51.8988 49.5856 51.7023C50.0601 51.5057 50.4913 51.2176 50.8545 50.8545C51.2176 50.4913 51.5057 50.0601 51.7023 49.5856C51.8988 49.1111 52 48.6025 52 48.0889V15.9111C52 15.3975 51.8988 14.8889 51.7023 14.4144C51.5057 13.9399 51.2176 13.5087 50.8545 13.1455C50.4913 12.7824 50.0601 12.4943 49.5856 12.2977C49.1111 12.1012 48.6025 12 48.0889 12ZM35.2 34.2222H30.2V48.5333H26.2222V34.2222H21.2222V30.9778H35.2V34.2222ZM48.0889 45.9556C47.7672 46.6396 47.2488 47.2121 46.6 47.6C45.9174 48.0201 45.1646 48.3137 44.3778 48.4667C43.5005 48.6478 42.6068 48.7372 41.7111 48.7333C40.7946 48.7325 39.8799 48.6507 38.9778 48.4889C38.211 48.3319 37.4652 48.0857 36.7556 47.7556V43.9556L36.6222 43.8222H36.7556V43.9778C37.424 44.4993 38.1751 44.9049 38.9778 45.1778C39.7793 45.483 40.6313 45.6338 41.4889 45.6222C41.937 45.63 42.3845 45.5853 42.8222 45.4889C43.151 45.412 43.4658 45.2845 43.7556 45.1111C43.9824 44.9728 44.1728 44.7824 44.3111 44.5556C44.4479 44.2973 44.5081 44.0052 44.4845 43.7139C44.4608 43.4225 44.3544 43.144 44.1778 42.9111C43.9689 42.6182 43.7046 42.3691 43.4 42.1778C43.0301 41.9177 42.6356 41.6944 42.2222 41.5111L40.7333 40.8889C39.5547 40.4035 38.5104 39.6412 37.6889 38.6667C37.0013 37.8379 36.6381 36.7876 36.6667 35.7111C36.6408 34.8933 36.8244 34.0825 37.2 33.3556C37.5585 32.722 38.0609 32.1815 38.6667 31.7778C39.3416 31.3287 40.0957 31.012 40.8889 30.8444C41.756 30.6449 42.6436 30.5479 43.5333 30.5556C44.3436 30.5442 45.1534 30.5963 45.9556 30.7111C46.6229 30.8154 47.2781 30.9867 47.9111 31.2222V34.8889C47.6186 34.6804 47.3059 34.5017 46.9778 34.3556C46.6244 34.2035 46.2605 34.0772 45.8889 33.9778C45.5327 33.8735 45.1685 33.7992 44.8 33.7556C44.46 33.7235 44.1178 33.7235 43.7778 33.7556C43.3591 33.7486 42.9411 33.7934 42.5333 33.8889C42.1988 33.959 41.8768 34.0789 41.5778 34.2444C41.3444 34.3819 41.1465 34.5722 41 34.8C40.867 35.0213 40.7978 35.2751 40.8 35.5333C40.7946 35.809 40.872 36.0799 41.0222 36.3111C41.2048 36.5635 41.4304 36.7817 41.6889 36.9556C42.0022 37.205 42.3456 37.414 42.7111 37.5778L44.1111 38.2C44.7548 38.4661 45.3787 38.778 45.9778 39.1333C46.5046 39.4217 46.9842 39.7889 47.4 40.2222C47.8074 40.617 48.1256 41.0943 48.3333 41.6222C48.5464 42.2289 48.6517 42.8682 48.6444 43.5111C48.6285 44.3411 48.4393 45.1586 48.0889 45.9111V45.9556Z" fill="#131315"/>
</svg>
